<?xml version="1.0" encoding="utf-8"?>
<svg xmlns="http://www.w3.org/2000/svg" version="1.1" width="1250" height="800" >

<rect x="0" y="0" width="1250" height="800" fill="white" />
<text text-anchor="middle" x="625" y="50" font-size="40">Fréquences date de Pâques sur un cycle</text><title>Fréquences date de Pâques sur un cycle</title>

<rect x="102" y="644" width="26" height="56" fill="blue"/>
<rect x="132" y="591" width="26" height="109" fill="green"/>
<rect x="162" y="537" width="26" height="163" fill="green"/>
<rect x="192" y="479" width="26" height="221" fill="green"/>
<rect x="222" y="434" width="26" height="266" fill="green"/>
<rect x="252" y="369" width="26" height="331" fill="green"/>
<rect x="282" y="327" width="26" height="373" fill="orange"/>
<rect x="312" y="314" width="26" height="386" fill="orange"/>
<rect x="342" y="320" width="26" height="380" fill="orange"/>
<rect x="372" y="320" width="26" height="380" fill="orange"/>
<rect x="402" y="314" width="26" height="386" fill="orange"/>
<rect x="432" y="327" width="26" height="373" fill="orange"/>
<rect x="462" y="314" width="26" height="386" fill="orange"/>
<rect x="492" y="327" width="26" height="373" fill="orange"/>
<rect x="522" y="314" width="26" height="386" fill="orange"/>
<rect x="552" y="320" width="26" height="380" fill="orange"/>
<rect x="582" y="320" width="26" height="380" fill="orange"/>
<rect x="612" y="314" width="26" height="386" fill="orange"/>
<rect x="642" y="327" width="26" height="373" fill="orange"/>
<rect x="672" y="314" width="26" height="386" fill="orange"/>
<rect x="702" y="327" width="26" height="373" fill="orange"/>
<rect x="732" y="314" width="26" height="386" fill="orange"/>
<rect x="762" y="320" width="26" height="380" fill="orange"/>
<rect x="792" y="320" width="26" height="380" fill="orange"/>
<rect x="822" y="314" width="26" height="386" fill="orange"/>
<rect x="852" y="327" width="26" height="373" fill="orange"/>
<rect x="882" y="314" width="26" height="386" fill="orange"/>
<rect x="912" y="305" width="26" height="395" fill="orange"/>
<rect x="942" y="259" width="26" height="441" fill="red"/>
<rect x="972" y="320" width="26" height="380" fill="orange"/>
<rect x="1002" y="375" width="26" height="325" fill="green"/>
<rect x="1032" y="424" width="26" height="276" fill="green"/>
<rect x="1062" y="487" width="26" height="213" fill="green"/>
<rect x="1092" y="534" width="26" height="166" fill="green"/>
<rect x="1122" y="616" width="26" height="84" fill="green"/>
<rect x="1152" y="700" width="26" height="0" fill="blue"/>
<line x1="100" y1="700" x2="100" y2="100" stroke="black" stroke-width="5"/>
<line x1="100" y1="700" x2="1150" y2="700" stroke="black" stroke-width="5"/>
<line x1="90" y1="700" x2="100" y2="700" stroke="black" stroke-width="2"/>
<line stroke-dasharray="2, 10" x1="100" y1="700" x2="1150" y2="700" stroke="black" stroke-width="2"/>
<text x="10" y="705" font-size="25">0</text>
<line x1="90" y1="650" x2="100" y2="650" stroke="black" stroke-width="2"/>
<line stroke-dasharray="2, 10" x1="100" y1="650" x2="1150" y2="650" stroke="black" stroke-width="2"/>
<text x="10" y="655" font-size="25">25000</text>
<line x1="90" y1="600" x2="100" y2="600" stroke="black" stroke-width="2"/>
<line stroke-dasharray="2, 10" x1="100" y1="600" x2="1150" y2="600" stroke="black" stroke-width="2"/>
<text x="10" y="605" font-size="25">50000</text>
<line x1="90" y1="550" x2="100" y2="550" stroke="black" stroke-width="2"/>
<line stroke-dasharray="2, 10" x1="100" y1="550" x2="1150" y2="550" stroke="black" stroke-width="2"/>
<text x="10" y="555" font-size="25">75000</text>
<line x1="90" y1="500" x2="100" y2="500" stroke="black" stroke-width="2"/>
<line stroke-dasharray="2, 10" x1="100" y1="500" x2="1150" y2="500" stroke="black" stroke-width="2"/>
<text x="10" y="505" font-size="25">100000</text>
<line x1="90" y1="450" x2="100" y2="450" stroke="black" stroke-width="2"/>
<line stroke-dasharray="2, 10" x1="100" y1="450" x2="1150" y2="450" stroke="black" stroke-width="2"/>
<text x="10" y="455" font-size="25">125000</text>
<line x1="90" y1="400" x2="100" y2="400" stroke="black" stroke-width="2"/>
<line stroke-dasharray="2, 10" x1="100" y1="400" x2="1150" y2="400" stroke="black" stroke-width="2"/>
<text x="10" y="405" font-size="25">150000</text>
<line x1="90" y1="350" x2="100" y2="350" stroke="black" stroke-width="2"/>
<line stroke-dasharray="2, 10" x1="100" y1="350" x2="1150" y2="350" stroke="black" stroke-width="2"/>
<text x="10" y="355" font-size="25">175000</text>
<line x1="90" y1="300" x2="100" y2="300" stroke="black" stroke-width="2"/>
<line stroke-dasharray="2, 10" x1="100" y1="300" x2="1150" y2="300" stroke="black" stroke-width="2"/>
<text x="10" y="305" font-size="25">200000</text>
<line x1="90" y1="250" x2="100" y2="250" stroke="black" stroke-width="2"/>
<line stroke-dasharray="2, 10" x1="100" y1="250" x2="1150" y2="250" stroke="black" stroke-width="2"/>
<text x="10" y="255" font-size="25">225000</text>
<line x1="90" y1="200" x2="100" y2="200" stroke="black" stroke-width="2"/>
<line stroke-dasharray="2, 10" x1="100" y1="200" x2="1150" y2="200" stroke="black" stroke-width="2"/>
<text x="10" y="205" font-size="25">250000</text>
<line x1="90" y1="150" x2="100" y2="150" stroke="black" stroke-width="2"/>
<line stroke-dasharray="2, 10" x1="100" y1="150" x2="1150" y2="150" stroke="black" stroke-width="2"/>
<text x="10" y="155" font-size="25">275000</text>
<line x1="90" y1="100" x2="100" y2="100" stroke="black" stroke-width="2"/>
<line stroke-dasharray="2, 10" x1="100" y1="100" x2="1150" y2="100" stroke="black" stroke-width="2"/>
<text x="10" y="105" font-size="25">300000</text>
<line x1="100" y1="700" x2="100" y2="710" stroke="black" stroke-width="2"/>
<text x="115" y="710" font-size="25" style="writing-mode: tb;">03/22</text>
<line x1="130" y1="700" x2="130" y2="710" stroke="black" stroke-width="2"/>
<text x="145" y="710" font-size="25" style="writing-mode: tb;">03/23</text>
<line x1="160" y1="700" x2="160" y2="710" stroke="black" stroke-width="2"/>
<text x="175" y="710" font-size="25" style="writing-mode: tb;">03/24</text>
<line x1="190" y1="700" x2="190" y2="710" stroke="black" stroke-width="2"/>
<text x="205" y="710" font-size="25" style="writing-mode: tb;">03/25</text>
<line x1="220" y1="700" x2="220" y2="710" stroke="black" stroke-width="2"/>
<text x="235" y="710" font-size="25" style="writing-mode: tb;">03/26</text>
<line x1="250" y1="700" x2="250" y2="710" stroke="black" stroke-width="2"/>
<text x="265" y="710" font-size="25" style="writing-mode: tb;">03/27</text>
<line x1="280" y1="700" x2="280" y2="710" stroke="black" stroke-width="2"/>
<text x="295" y="710" font-size="25" style="writing-mode: tb;">03/28</text>
<line x1="310" y1="700" x2="310" y2="710" stroke="black" stroke-width="2"/>
<text x="325" y="710" font-size="25" style="writing-mode: tb;">03/29</text>
<line x1="340" y1="700" x2="340" y2="710" stroke="black" stroke-width="2"/>
<text x="355" y="710" font-size="25" style="writing-mode: tb;">03/30</text>
<line x1="370" y1="700" x2="370" y2="710" stroke="black" stroke-width="2"/>
<text x="385" y="710" font-size="25" style="writing-mode: tb;">03/31</text>
<line x1="400" y1="700" x2="400" y2="710" stroke="black" stroke-width="2"/>
<text x="415" y="710" font-size="25" style="writing-mode: tb;">04/01</text>
<line x1="430" y1="700" x2="430" y2="710" stroke="black" stroke-width="2"/>
<text x="445" y="710" font-size="25" style="writing-mode: tb;">04/02</text>
<line x1="460" y1="700" x2="460" y2="710" stroke="black" stroke-width="2"/>
<text x="475" y="710" font-size="25" style="writing-mode: tb;">04/03</text>
<line x1="490" y1="700" x2="490" y2="710" stroke="black" stroke-width="2"/>
<text x="505" y="710" font-size="25" style="writing-mode: tb;">04/04</text>
<line x1="520" y1="700" x2="520" y2="710" stroke="black" stroke-width="2"/>
<text x="535" y="710" font-size="25" style="writing-mode: tb;">04/05</text>
<line x1="550" y1="700" x2="550" y2="710" stroke="black" stroke-width="2"/>
<text x="565" y="710" font-size="25" style="writing-mode: tb;">04/06</text>
<line x1="580" y1="700" x2="580" y2="710" stroke="black" stroke-width="2"/>
<text x="595" y="710" font-size="25" style="writing-mode: tb;">04/07</text>
<line x1="610" y1="700" x2="610" y2="710" stroke="black" stroke-width="2"/>
<text x="625" y="710" font-size="25" style="writing-mode: tb;">04/08</text>
<line x1="640" y1="700" x2="640" y2="710" stroke="black" stroke-width="2"/>
<text x="655" y="710" font-size="25" style="writing-mode: tb;">04/09</text>
<line x1="670" y1="700" x2="670" y2="710" stroke="black" stroke-width="2"/>
<text x="685" y="710" font-size="25" style="writing-mode: tb;">04/10</text>
<line x1="700" y1="700" x2="700" y2="710" stroke="black" stroke-width="2"/>
<text x="715" y="710" font-size="25" style="writing-mode: tb;">04/11</text>
<line x1="730" y1="700" x2="730" y2="710" stroke="black" stroke-width="2"/>
<text x="745" y="710" font-size="25" style="writing-mode: tb;">04/12</text>
<line x1="760" y1="700" x2="760" y2="710" stroke="black" stroke-width="2"/>
<text x="775" y="710" font-size="25" style="writing-mode: tb;">04/13</text>
<line x1="790" y1="700" x2="790" y2="710" stroke="black" stroke-width="2"/>
<text x="805" y="710" font-size="25" style="writing-mode: tb;">04/14</text>
<line x1="820" y1="700" x2="820" y2="710" stroke="black" stroke-width="2"/>
<text x="835" y="710" font-size="25" style="writing-mode: tb;">04/15</text>
<line x1="850" y1="700" x2="850" y2="710" stroke="black" stroke-width="2"/>
<text x="865" y="710" font-size="25" style="writing-mode: tb;">04/16</text>
<line x1="880" y1="700" x2="880" y2="710" stroke="black" stroke-width="2"/>
<text x="895" y="710" font-size="25" style="writing-mode: tb;">04/17</text>
<line x1="910" y1="700" x2="910" y2="710" stroke="black" stroke-width="2"/>
<text x="925" y="710" font-size="25" style="writing-mode: tb;">04/18</text>
<line x1="940" y1="700" x2="940" y2="710" stroke="black" stroke-width="2"/>
<text x="955" y="710" font-size="25" style="writing-mode: tb;">04/19</text>
<line x1="970" y1="700" x2="970" y2="710" stroke="black" stroke-width="2"/>
<text x="985" y="710" font-size="25" style="writing-mode: tb;">04/20</text>
<line x1="1000" y1="700" x2="1000" y2="710" stroke="black" stroke-width="2"/>
<text x="1015" y="710" font-size="25" style="writing-mode: tb;">04/21</text>
<line x1="1030" y1="700" x2="1030" y2="710" stroke="black" stroke-width="2"/>
<text x="1045" y="710" font-size="25" style="writing-mode: tb;">04/22</text>
<line x1="1060" y1="700" x2="1060" y2="710" stroke="black" stroke-width="2"/>
<text x="1075" y="710" font-size="25" style="writing-mode: tb;">04/23</text>
<line x1="1090" y1="700" x2="1090" y2="710" stroke="black" stroke-width="2"/>
<text x="1105" y="710" font-size="25" style="writing-mode: tb;">04/24</text>
<line x1="1120" y1="700" x2="1120" y2="710" stroke="black" stroke-width="2"/>
<text x="1135" y="710" font-size="25" style="writing-mode: tb;">04/25</text>
<line x1="1150" y1="700" x2="1150" y2="710" stroke="black" stroke-width="2"/>

</svg>
